<svg xmlns="http://www.w3.org/2000/svg" viewBox="0 0 1024 1024">
  <defs>
    <radialGradient id="plateGlow" cx="50%" cy="28%" r="78%">
      <stop offset="0%" stop-color="#3d424c"/>
      <stop offset="58%" stop-color="#181b21"/>
      <stop offset="100%" stop-color="#0d1117"/>
    </radialGradient>
    <linearGradient id="plateEdge" x1="12%" y1="5%" x2="90%" y2="96%">
      <stop offset="0%" stop-color="#8f949e"/>
      <stop offset="45%" stop-color="#30343b"/>
      <stop offset="100%" stop-color="#de5a57"/>
    </linearGradient>
    <radialGradient id="eye" cx="34%" cy="26%" r="70%">
      <stop offset="0%" stop-color="#ffffff"/>
      <stop offset="20%" stop-color="#30343a"/>
      <stop offset="100%" stop-color="#06070a"/>
    </radialGradient>
  </defs>

  <rect x="42" y="42" width="940" height="940" rx="174" fill="url(#plateGlow)"/>
  <rect x="42" y="42" width="940" height="940" rx="174" fill="none" stroke="url(#plateEdge)" stroke-width="8" opacity="0.72"/>
  <rect x="66" y="66" width="892" height="892" rx="152" fill="none" stroke="#ffffff" stroke-width="2" opacity="0.12"/>

  <g fill="none" stroke="#ff544e" opacity="0.34">
    <path d="M164 720C271 594 348 292 512 292s241 302 348 428" stroke-width="2.5"/>
    <path d="M214 318c142-156 454-156 596 0" stroke-width="2.5"/>
    <path d="M260 266c128-104 376-104 504 0" stroke-width="1.8" opacity="0.58"/>
    <path d="M304 213c116-70 300-70 416 0" stroke-width="1.6" opacity="0.48"/>
    <path d="M280 818h464" stroke-width="16" stroke-linecap="round" opacity="0.28"/>
    <path d="M334 764h356" stroke-width="11" stroke-linecap="round" opacity="0.18"/>
  </g>

  <g fill="#ff5a51" opacity="0.78">
    <circle cx="176" cy="328" r="6"/>
    <circle cx="848" cy="328" r="6"/>
    <circle cx="512" cy="151" r="7"/>
    <circle cx="512" cy="205" r="6"/>
    <circle cx="512" cy="250" r="5"/>
  </g>

  <ellipse cx="512" cy="838" rx="252" ry="42" fill="#000000" opacity="0.34"/>

  <g>
    <path d="M316 356c-54-94-150-113-202-31-47 74-8 207 83 264 55 34 111 23 135-30 27-58 22-137-16-203z"
          fill="#e51f22"/>
    <path d="M708 356c54-94 150-113 202-31 47 74 8 207-83 264-55 34-111 23-135-30-27-58-22-137 16-203z"
          fill="#e51f22"/>
    <path d="M151 333c41-46 102-33 142 28 20 31 31 66 32 102-25-51-63-91-115-120-25-14-44-17-59-10z"
          fill="#ff7262" opacity="0.74"/>
    <path d="M873 333c-41-46-102-33-142 28-20 31-31 66-32 102 25-51 63-91 115-120 25-14 44-17 59-10z"
          fill="#ff7262" opacity="0.74"/>

    <ellipse cx="512" cy="533" rx="278" ry="292" fill="#e71920"/>
    <ellipse cx="428" cy="382" rx="130" ry="86" fill="#ff6155" opacity="0.56"/>
    <path d="M280 566c21 146 118 235 232 235 128 0 238-103 249-271-45 119-140 191-250 191-105 0-187-58-231-155z"
          fill="#980f17" opacity="0.34"/>
    <ellipse cx="512" cy="640" rx="150" ry="112" fill="#ff9a82"/>
    <ellipse cx="470" cy="604" rx="78" ry="38" fill="#ffd0be" opacity="0.34"/>
    <path d="M453 706c29 24 89 24 118 0" fill="none" stroke="#771018" stroke-width="13" stroke-linecap="round"/>
    <path d="M512 651v56" fill="none" stroke="#771018" stroke-width="13" stroke-linecap="round"/>
    <path d="M471 612c0-25 82-25 82 0 0 22-23 42-41 42s-41-20-41-42z" fill="#111318"/>

    <circle cx="405" cy="492" r="44" fill="url(#eye)"/>
    <circle cx="619" cy="492" r="44" fill="url(#eye)"/>
    <circle cx="389" cy="473" r="13" fill="#ffffff" opacity="0.92"/>
    <circle cx="603" cy="473" r="13" fill="#ffffff" opacity="0.92"/>

    <path d="M410 779c38 24 166 24 204 0" fill="none" stroke="#ff6d5d" stroke-width="26" stroke-linecap="round" opacity="0.72"/>
    <path d="M390 785h244" fill="none" stroke="#151920" stroke-width="17" stroke-linecap="round" opacity="0.5"/>
  </g>
</svg>
